<svg width="86" height="142" viewBox="0 0 86 142" fill="none" xmlns="http://www.w3.org/2000/svg">
<path d="M38.4524 0C39.4524 1.1 45.6524 8.4 44.2524 18.4C43.3524 24.6 39.9524 28.7 38.4524 30.3C36.9524 31.7 34.5524 33.8 31.4524 36.2C18.7524 46.3 12.7524 47.3 7.45244 53.7C4.65244 57.1 1.45244 62.7 0.652439 72.1C0.0524394 76.4 -0.247561 81.9 0.252439 88.2C0.952439 95.6 2.55244 101.7 4.25244 106.2C3.55244 102.7 1.65244 91.7 7.35244 79.7C13.4524 66.8 24.1524 61.3 27.2524 59.8C33.6524 56.6 38.5524 53.3 42.0524 50.8C50.9524 44.3 57.8524 39 59.3524 30.6C59.9524 27.2 59.4524 24.3 58.9524 22.3C57.8524 19.3 55.8524 14.9 52.1524 10.4C47.2524 4.6 41.7524 1.5 38.4524 0Z" fill="white"/>
<path d="M65.4524 26.6C65.4524 29.2 65.2524 34.1 62.5524 39.6C59.3524 46 54.6524 49.5 52.4524 50.9C46.0524 55.4 40.8524 58.9 37.3524 61.2C27.7524 67.5 24.8524 69 20.7524 73.4C18.6524 75.7 15.6524 79.5 13.1524 85.3C11.9524 88.5 10.7524 92.5 10.2524 97.2C8.75243 110.3 13.0524 120.8 15.6524 126C14.7524 122 12.3524 109.5 18.8524 96.1C23.0524 87.5 29.0524 82.4 32.5524 79.9C35.3524 77.9 39.8524 75 45.5524 71.6C53.1524 67.1 56.1524 66 60.3524 62.6C63.3524 60.2 67.3524 56.3 71.1524 50C71.7524 48 73.1524 43.1 71.5524 37C70.1524 31.6 66.9524 28.1 65.4524 26.6Z" fill="white"/>
<path d="M77.0524 41.4C77.4524 43.4 77.9524 47.6 76.3525 52.6C74.4524 58.4 70.7524 61.7 69.1524 63C61.0524 70 53.9524 75.1 48.9524 78.5C39.6525 84.8 34.4524 87.1 29.4524 93.4C24.6524 99.5 22.5524 106 21.6524 110.5C21.1524 113.6 20.8524 117.2 20.9524 121.3C21.1524 130 23.3524 137 25.2524 141.8C24.8524 137.3 24.5524 126.8 30.6524 115.9C34.0525 109.9 38.2524 105.8 41.2524 103.3C49.9524 97.6 56.7524 93.4 61.5524 90.7C64.0524 89.3 68.2524 86.9 73.0524 82.8C76.9524 79.5 79.1524 76.9 80.6524 74.9C82.6524 72.2 84.0525 70.3 84.9525 67.3C86.6525 61.9 85.3524 57.1 84.5524 54.3C82.7524 47.6 78.8524 43.2 77.0524 41.4Z" fill="white"/>
</svg>
