<svg width="30" height="30" fill="none" xmlns="http://www.w3.org/2000/svg"><circle cx="15" cy="15" r="15" fill="#1B8D49"/><path d="M18.082 8.582h-3.5a2.92 2.92 0 0 0-2.914 2.918v4.681a2.894 2.894 0 0 0-1.75-.599 2.919 2.919 0 0 0 0 5.836 2.916 2.916 0 0 0 2.914-2.918v-7c0-.965.785-1.75 1.75-1.75h3.5c.966 0 1.75.785 1.75 1.75v4.681a2.894 2.894 0 0 0-1.75-.599 2.919 2.919 0 0 0 0 5.836A2.919 2.919 0 0 0 21 18.5v-7a2.922 2.922 0 0 0-2.918-2.918zM9.918 20.25c-.966 0-1.75-.785-1.75-1.75s.784-1.75 1.75-1.75c.965 0 1.75.785 1.75 1.75s-.785 1.75-1.75 1.75zm8.164 0c-.965 0-1.75-.785-1.75-1.75s.785-1.75 1.75-1.75a1.75 1.75 0 1 1 0 3.5z" fill="#fff"/></svg>