<?xml version="1.0" encoding="utf-8"?>
<!-- Generator: Adobe Illustrator 24.0.0, SVG Export Plug-In . SVG Version: 6.00 Build 0)  -->
<svg version="1.1" id="Layer_1" xmlns="http://www.w3.org/2000/svg" xmlns:xlink="http://www.w3.org/1999/xlink" x="0px" y="0px"
	 viewBox="0 0 512 512" style="enable-background:new 0 0 512 512;" xml:space="preserve">
<style type="text/css">
	.st0{fill:#25A859;}
</style>
<path class="st0" d="M286.3,320c88.4,0,160-71.6,160-160S374.6,0,286.3,0s-160,71.6-160,160C126.3,248.3,197.9,319.9,286.3,320z
	 M286.3,64c53,0,96,43,96,96s-43,96-96,96s-96-43-96-96S233.2,64,286.3,64z M506.4,310.5c-45.5,66.3-118.6,108.5-198.8,114.8V448
	h65.7c17.7,0,32,14.3,32,32s-14.3,32-32,32h-192c-17.7,0-32-14.3-32-32s14.3-32,32-32h62.3v-25.1C98.3,399.5-0.4,262.7,23,117.5
	c5.9-36.7,19.5-71.8,39.8-102.9c9.4-14.9,29.2-19.4,44.1-10s19.4,29.2,10,44.1c-0.2,0.3-0.3,0.5-0.5,0.8
	c-62.1,93.1-36.9,219,56.2,281.1s219,36.9,281.1-56.2c10-14.6,29.9-18.3,44.5-8.3C512.7,276.1,516.4,296,506.4,310.5L506.4,310.5
	L506.4,310.5z"/>
</svg>
