<svg xmlns="http://www.w3.org/2000/svg" viewBox="0 0 512 512" style="enable-background:new 0 0 512 512" xml:space="preserve"><path d="M286.3 320c88.4 0 160-71.6 160-160S374.6 0 286.3 0s-160 71.6-160 160c0 88.3 71.6 159.9 160 160zm0-256c53 0 96 43 96 96s-43 96-96 96-96-43-96-96 42.9-96 96-96zm220.1 246.5C460.9 376.8 387.8 419 307.6 425.3V448h65.7c17.7 0 32 14.3 32 32s-14.3 32-32 32h-192c-17.7 0-32-14.3-32-32s14.3-32 32-32h62.3v-25.1C98.3 399.5-.4 262.7 23 117.5c5.9-36.7 19.5-71.8 39.8-102.9C72.2-.3 92-4.8 106.9 4.6s19.4 29.2 10 44.1c-.2.3-.3.5-.5.8-62.1 93.1-36.9 219 56.2 281.1s219 36.9 281.1-56.2c10-14.6 29.9-18.3 44.5-8.3 14.5 10 18.2 29.9 8.2 44.4z" style="fill:#25a859"/></svg>