<?xml version="1.0" encoding="utf-8"?>
<!-- Generator: Adobe Illustrator 24.0.0, SVG Export Plug-In . SVG Version: 6.00 Build 0)  -->
<svg version="1.1" id="Filled" xmlns="http://www.w3.org/2000/svg" xmlns:xlink="http://www.w3.org/1999/xlink" x="0px" y="0px"
	 viewBox="0 0 512 512" style="enable-background:new 0 0 512 512;" xml:space="preserve">
<style type="text/css">
	.st0{fill:#25A859;}
</style>
<path class="st0" d="M490.7,341.3c-11.8,0-21.3,9.6-21.3,21.3v42.7c0,35.3-28.7,64-64,64h-42.7c-11.8,0-21.3,9.6-21.3,21.3
	c0,11.8,9.6,21.3,21.3,21.3h42.7c58.9-0.1,106.6-47.8,106.7-106.7v-42.7C512,350.9,502.4,341.3,490.7,341.3z"/>
<path class="st0" d="M21.3,170.7c11.8,0,21.3-9.6,21.3-21.3v-42.7c0-35.3,28.7-64,64-64h42.7c11.8,0,21.3-9.6,21.3-21.3
	S161.1,0,149.3,0h-42.7C47.8,0.1,0.1,47.8,0,106.7v42.7C0,161.1,9.6,170.7,21.3,170.7z"/>
<path class="st0" d="M149.3,469.3h-42.7c-35.3,0-64-28.7-64-64v-42.7c0-11.8-9.6-21.3-21.3-21.3S0,350.9,0,362.7v42.7
	C0.1,464.2,47.8,511.9,106.7,512h42.7c11.8,0,21.3-9.6,21.3-21.3C170.7,478.9,161.1,469.3,149.3,469.3z"/>
<path class="st0" d="M405.3,0h-42.7c-11.8,0-21.3,9.6-21.3,21.3s9.6,21.3,21.3,21.3h42.7c35.3,0,64,28.7,64,64v42.7
	c0,11.8,9.6,21.3,21.3,21.3c11.8,0,21.3-9.6,21.3-21.3v-42.7C511.9,47.8,464.2,0.1,405.3,0z"/>
<circle class="st0" cx="256" cy="149.3" r="85.3"/>
<path class="st0" d="M234.7,277.3c-70.7,0.1-127.9,57.3-128,128c0,11.8,9.6,21.3,21.3,21.3h256c11.8,0,21.3-9.6,21.3-21.3
	c-0.1-70.7-57.3-127.9-128-128H234.7z"/>
</svg>
