<svg version="1.1" id="Filled" xmlns="http://www.w3.org/2000/svg" x="0" y="0" viewBox="0 0 512 512" style="enable-background:new 0 0 512 512" xml:space="preserve"><style>.st0{fill:#25a859}</style><path class="st0" d="M490.7 341.3c-11.8 0-21.3 9.6-21.3 21.3v42.7c0 35.3-28.7 64-64 64h-42.7c-11.8 0-21.3 9.6-21.3 21.3 0 11.8 9.6 21.3 21.3 21.3h42.7c58.9-.1 106.6-47.8 106.7-106.7v-42.7c-.1-11.6-9.7-21.2-21.4-21.2zM21.3 170.7c11.8 0 21.3-9.6 21.3-21.3v-42.7c0-35.3 28.7-64 64-64h42.7c11.8 0 21.3-9.6 21.3-21.3S161.1 0 149.3 0h-42.7C47.8.1.1 47.8 0 106.7v42.7c0 11.7 9.6 21.3 21.3 21.3zM149.3 469.3h-42.7c-35.3 0-64-28.7-64-64v-42.7c0-11.8-9.6-21.3-21.3-21.3S0 350.9 0 362.7v42.7C.1 464.2 47.8 511.9 106.7 512h42.7c11.8 0 21.3-9.6 21.3-21.3 0-11.8-9.6-21.4-21.4-21.4zM405.3 0h-42.7c-11.8 0-21.3 9.6-21.3 21.3s9.6 21.3 21.3 21.3h42.7c35.3 0 64 28.7 64 64v42.7c0 11.8 9.6 21.3 21.3 21.3 11.8 0 21.3-9.6 21.3-21.3v-42.7C511.9 47.8 464.2.1 405.3 0z"/><circle class="st0" cx="256" cy="149.3" r="85.3"/><path class="st0" d="M234.7 277.3c-70.7.1-127.9 57.3-128 128 0 11.8 9.6 21.3 21.3 21.3h256c11.8 0 21.3-9.6 21.3-21.3-.1-70.7-57.3-127.9-128-128h-42.6z"/></svg>