<svg version="1.1" id="Outline" xmlns="http://www.w3.org/2000/svg" x="0" y="0" viewBox="0 0 512 512" style="enable-background:new 0 0 512 512" xml:space="preserve"><style>.st0{fill:#25a859}</style><path class="st0" d="M398 19.8 137.9 279.9c-20.1 20-31.3 47.1-31.2 75.4V384c0 11.8 9.6 21.3 21.3 21.3h28.7c28.3.1 55.5-11.2 75.4-31.2L492.2 114c26-26 26-68.1 0-94.2-26.4-25.1-67.9-25.1-94.2 0zm64 64L201.9 343.9c-12 12-28.3 18.7-45.2 18.7h-7.3v-7.3c0-17 6.8-33.2 18.7-45.2L428.2 50c9.5-9 24.4-9 33.8 0 9.3 9.4 9.3 24.5 0 33.8z"/><path class="st0" d="M490.7 191.6c-11.8 0-21.3 9.6-21.3 21.3V320H384c-35.3 0-64 28.7-64 64v85.3H106.7c-35.3 0-64-28.7-64-64V106.7c0-35.3 28.7-64 64-64h192.9c11.8 0 21.3-9.6 21.3-21.3S311.3 0 299.6 0H106.7C47.8.1.1 47.8 0 106.7v298.7C.1 464.2 47.8 511.9 106.7 512h242c28.3.1 55.5-11.2 75.4-31.2l56.7-56.7c20.1-20 31.3-47.1 31.3-75.4V212.9c-.1-11.8-9.7-21.3-21.4-21.3zm-96.8 259c-8.6 8.6-19.4 14.5-31.3 17.1V384c0-11.8 9.6-21.3 21.3-21.3h83.7c-2.6 11.8-8.6 22.6-17.1 31.2l-56.6 56.7z"/></svg>