<?xml version="1.0" encoding="utf-8"?>
<!-- Generator: Adobe Illustrator 24.0.0, SVG Export Plug-In . SVG Version: 6.00 Build 0)  -->
<svg version="1.1" id="Layer_1" xmlns="http://www.w3.org/2000/svg" xmlns:xlink="http://www.w3.org/1999/xlink" x="0px" y="0px"
	 viewBox="0 0 512 512" style="enable-background:new 0 0 512 512;" xml:space="preserve">
<style type="text/css">
	.st0{fill:#25A859;}
</style>
<path class="st0" d="M257.2,239.2l171.5,143.3l-121.5,91.1c-30.3,22.8-72.1,22.8-102.4,0L74,375.5c-11.1-8.3-24.6-12.8-38.4-12.8
	H21.4C9.6,362.7,0,353.1,0,341.3v-236c0-10.8,8.1-19.9,18.9-21.1c28.9-3.2,55-14.8,81.7-30.4c38.4-19.7,88.7-12.7,119.8,16.5
	L233.5,83L148,166.4c-22.9,22.9-26.5,59-8.5,84c11.1,15.4,31.2,26.9,52.1,26.9c16.9,0,33.2-6.7,44.9-18.4L257.2,239.2L257.2,239.2z
	 M425.7,53.9c-36.1-18-81-13.3-113.2,11.7L178,196.8c-7.9,7.9-9.7,20.6-3.9,28.7c3.8,5.3,9.4,8.5,15.8,9.1
	c6.3,0.5,12.4-1.7,16.8-6.2l77.2-73.2c20.2-19.2,49.6,11.5,29.5,30.8l-25.2,23.4l183.3,153.2h19.1c11.8,0,21.3-9.6,21.3-21.3V104.6
	c0-10.5-7.6-19.1-17.9-20.9C457.9,77.1,425.7,53.9,425.7,53.9L425.7,53.9z"/>
</svg>
