<?xml version="1.0" encoding="utf-8"?>
<!-- Generator: Adobe Illustrator 24.0.0, SVG Export Plug-In . SVG Version: 6.00 Build 0)  -->
<svg version="1.1" id="Outline" xmlns="http://www.w3.org/2000/svg" xmlns:xlink="http://www.w3.org/1999/xlink" x="0px" y="0px"
	 viewBox="0 0 512 512" style="enable-background:new 0 0 512 512;" xml:space="preserve">
<style type="text/css">
	.st0{fill:#FFFFFF;}
</style>
<path class="st0" d="M21.3,234.7h469.3c11.8,0,21.3,9.6,21.3,21.3l0,0c0,11.8-9.6,21.3-21.3,21.3H21.3C9.6,277.3,0,267.8,0,256l0,0
	C0,244.2,9.6,234.7,21.3,234.7z"/>
<path class="st0" d="M21.3,85.3h469.3c11.8,0,21.3,9.6,21.3,21.3l0,0c0,11.8-9.6,21.3-21.3,21.3H21.3C9.6,128,0,118.4,0,106.7l0,0
	C0,94.9,9.6,85.3,21.3,85.3z"/>
<path class="st0" d="M21.3,384h469.3c11.8,0,21.3,9.6,21.3,21.3l0,0c0,11.8-9.6,21.3-21.3,21.3H21.3C9.6,426.7,0,417.1,0,405.3l0,0
	C0,393.6,9.6,384,21.3,384z"/>
</svg>
