<svg version="1.1" id="Outline" xmlns="http://www.w3.org/2000/svg" x="0" y="0" viewBox="0 0 512 512" style="enable-background:new 0 0 512 512" xml:space="preserve"><style>.st0{fill:#fff}</style><path class="st0" d="M21.3 234.7h469.3c11.8 0 21.3 9.6 21.3 21.3 0 11.8-9.6 21.3-21.3 21.3H21.3C9.6 277.3 0 267.8 0 256s9.6-21.3 21.3-21.3zM21.3 85.3h469.3c11.8 0 21.3 9.6 21.3 21.3 0 11.8-9.6 21.3-21.3 21.3H21.3C9.6 128 0 118.4 0 106.7c0-11.8 9.6-21.4 21.3-21.4zM21.3 384h469.3c11.8 0 21.3 9.6 21.3 21.3 0 11.8-9.6 21.3-21.3 21.3H21.3C9.6 426.7 0 417.1 0 405.3 0 393.6 9.6 384 21.3 384z"/></svg>