<?xml version="1.0" encoding="utf-8"?>
<!-- Generator: Adobe Illustrator 24.0.0, SVG Export Plug-In . SVG Version: 6.00 Build 0)  -->
<svg version="1.1" id="Outline" xmlns="http://www.w3.org/2000/svg" xmlns:xlink="http://www.w3.org/1999/xlink" x="0px" y="0px"
	 viewBox="0 0 512 512" style="enable-background:new 0 0 512 512;" xml:space="preserve">
<style type="text/css">
	.st0{fill:#25A859;}
</style>
<path class="st0" d="M405.3,21.3h-128C218.5,21.4,170.7,69.1,170.7,128v171.2c-18.4-14.1-40.8-21.8-64-21.9
	C47.8,277.3,0,325.1,0,384s47.8,106.7,106.7,106.7S213.3,442.9,213.3,384V128c0-35.3,28.7-64,64-64h128c35.3,0,64,28.7,64,64v171.2
	c-18.4-14.1-40.8-21.8-64-21.9c-58.9,0-106.7,47.8-106.7,106.7s47.8,106.7,106.7,106.7S512,442.9,512,384V128
	C511.9,69.1,464.2,21.4,405.3,21.3z M106.7,448c-35.3,0-64-28.7-64-64s28.7-64,64-64s64,28.7,64,64S142,448,106.7,448z M405.3,448
	c-35.3,0-64-28.7-64-64s28.7-64,64-64s64,28.7,64,64S440.7,448,405.3,448z"/>
</svg>
