<svg xmlns="http://www.w3.org/2000/svg" viewBox="0 0 512 512" style="enable-background:new 0 0 512 512" xml:space="preserve"><path d="M405.3 21.3h-128c-58.8.1-106.6 47.8-106.6 106.7v171.2c-18.4-14.1-40.8-21.8-64-21.9C47.8 277.3 0 325.1 0 384s47.8 106.7 106.7 106.7S213.3 442.9 213.3 384V128c0-35.3 28.7-64 64-64h128c35.3 0 64 28.7 64 64v171.2c-18.4-14.1-40.8-21.8-64-21.9-58.9 0-106.7 47.8-106.7 106.7s47.8 106.7 106.7 106.7S512 442.9 512 384V128c-.1-58.9-47.8-106.6-106.7-106.7zM106.7 448c-35.3 0-64-28.7-64-64s28.7-64 64-64 64 28.7 64 64-28.7 64-64 64zm298.6 0c-35.3 0-64-28.7-64-64s28.7-64 64-64 64 28.7 64 64-28.6 64-64 64z" style="fill:#25a859"/></svg>