<svg width="24" height="24" viewBox="0 0 24 24" fill="none" xmlns="http://www.w3.org/2000/svg">
<path d="M8.09281 0.865947C7.9683 0.605769 7.77678 0.38693 7.53973 0.233975C7.30267 0.0810208 7.02947 0 6.75075 0C6.47203 0 6.19883 0.0810208 5.96178 0.233975C5.72473 0.38693 5.5332 0.605769 5.40869 0.865947L0.158457 11.822C0.0441262 12.0605 -0.00990405 12.3256 0.00149218 12.592C0.0128884 12.8584 0.0893331 13.1173 0.223574 13.3443C0.357814 13.5712 0.545398 13.7586 0.768528 13.8886C0.991658 14.0187 1.24293 14.0871 1.49852 14.0873C1.77714 14.0874 2.05028 14.0065 2.28732 13.8538C2.52436 13.701 2.71594 13.4823 2.84058 13.2223L3.4276 12.0005H10.0739L10.6589 13.2223C10.7834 13.482 10.9747 13.7005 11.2113 13.8532C11.448 14.006 11.7207 14.087 11.999 14.0873C12.2547 14.0874 12.5063 14.0193 12.7297 13.8894C12.9531 13.7595 13.1409 13.5721 13.2754 13.3451C13.4099 13.1182 13.4865 12.8591 13.498 12.5925C13.5095 12.3259 13.4555 12.0607 13.341 11.822L8.09281 0.865947ZM4.92767 8.87016L6.75075 5.06578L8.57383 8.87016H4.92767Z" fill="#25A859"/>
<path d="M12.999 24C12.802 24.0001 12.6069 23.9597 12.4248 23.8811C12.2427 23.8025 12.0773 23.6872 11.938 23.5419L6.93773 18.3247C6.65632 18.0311 6.49823 17.6329 6.49823 17.2177C6.49823 16.8024 6.65632 16.4042 6.93773 16.1106C7.21914 15.8169 7.60081 15.652 7.99878 15.652C8.39675 15.652 8.77842 15.8169 9.05982 16.1106L12.999 20.2217L21.4384 11.4151C21.7198 11.1215 22.1015 10.9565 22.4994 10.9565C22.8974 10.9565 23.2791 11.1215 23.5605 11.4151C23.8419 11.7087 24 12.1069 24 12.5222C24 12.9374 23.8419 13.3357 23.5605 13.6293L14.06 23.5419C13.9207 23.6872 13.7553 23.8025 13.5732 23.8811C13.3911 23.9597 13.196 24.0001 12.999 24Z" fill="#25A859"/>
</svg>
